# xmcd CD database file
#
# Track frame offsets:
#	150
#	16088
#	43987
#	68320
#	82304
#	97883
#	121650
#	147388
#	165771
#	191558
#	211665
#	235856
#	253957
#	263458
#	281959
#	303799
#	319888
#
# Disc length: 4614 seconds
#
# Revision: 0
# Processed by: cddbd v1.5.2PL0 Copyright (c) Steve Scherf et al.
# Submitted via: CDex 1.51
#
DISCID=e0120411
DTITLE=Diana Krall - From This Moment On
DYEAR=2006
DGENRE=Jazz
TTITLE0=It could happen to you
TTITLE1=Isn't this a lovely day
TTITLE2=How insensitive
TTITLE3=Exactly like you
TTITLE4=From this moment on
TTITLE5=I was doing all right
TTITLE6=Little girl blue
TTITLE7=Day in day out
TTITLE8=Willow weep for me
TTITLE9=Come dance with me
TTITLE10=You can depend on me
TTITLE11=Stop this world
TTITLE12=The girl in the other room
TTITLE13=Almost blue
TTITLE14=Black crow
TTITLE15=Narrow daylight
TTITLE16=Departure bay
EXTD=YEAR: 2006
EXTT0=
EXTT1=
EXTT2=
EXTT3=
EXTT4=
EXTT5=
EXTT6=
EXTT7=
EXTT8=
EXTT9=
EXTT10=
EXTT11=
EXTT12=
EXTT13=
EXTT14=
EXTT15=
EXTT16=
PLAYORDER=
